# xmcd CD database file generated by Grip 3.2.0
# 
# Track frame offsets:
#       150
#       17946
#       67839
#       91054
#       121136
#       142355
#       164157
#       183516
#       203291
#       232813
#       252237
#       279243
# 
# Disc length: 4386 seconds
# 
# Revision: 1
# Processed by: cddbd v1.5.1PL0 Copyright (c) Steve Scherf et al.
# Submitted via: Grip 3.2.0
# 
DISCID=9f11200c
DTITLE=Mago de Oz - Gaia
DYEAR=2003
DGENRE=Other
TTITLE0=Obertura mdxx
TTITLE1=Gaia
TTITLE2=La Conquista
TTITLE3=Alma
TTITLE4=La costa del silencio
TTITLE5=El Arbol de la noche triste
TTITLE6=La rosa de los vientos
TTITLE7=La leyenda de la llorona
TTITLE8=Van a rodar cabezas
TTITLE9=El atrapasueños
TTITLE10=si te vas
TTITLE11=la venganza de gaia
EXTD=
EXTT0=
EXTT1=
EXTT2=
EXTT3=
EXTT4=
EXTT5=
EXTT6=
EXTT7=
EXTT8=
EXTT9=
EXTT10=
EXTT11=
PLAYORDER=
